<?xml version="1.0" encoding="utf-8"?>
<!-- Generator: Adobe Illustrator 19.0.0, SVG Export Plug-In . SVG Version: 6.00 Build 0)  -->
<svg version="1.1" id="Layer_1" xmlns="http://www.w3.org/2000/svg" xmlns:xlink="http://www.w3.org/1999/xlink" x="0px" y="0px"
	 viewBox="0 0 1024.8 307.2" style="enable-background:new 0 0 1024.8 307.2;" xml:space="preserve">
<style type="text/css">
	.st0{fill:#676767;}
	.st1{fill:#B82F2F;}
</style>
<g>
	<g>
		<path class="st0" d="M458.4,106.3v35.1h-12.5v-35.1h-13V95.7h38.3v10.6H458.4z"/>
		<path class="st0" d="M519.4,118.5c0,13.2-6.7,23.5-23.2,23.5c-16.5,0-23.2-10.3-23.2-23.5S479.7,95,496.2,95
			C512.7,95,519.4,105.3,519.4,118.5z M506.5,118.5c0-7.6-2.8-12.9-10.3-12.9c-7.5,0-10.3,5.3-10.3,12.9c0,7.6,2.8,12.9,10.3,12.9
			C503.7,131.4,506.5,126.2,506.5,118.5z"/>
		<path class="st0" d="M543.1,124.8h-5.2v16.6h-12.5V95.7h21.8c13.2,0,19.2,4.8,19.2,14.5c0,7.4-3.5,11.9-10.8,13.7l10.9,17.4h-13.4
			L543.1,124.8z M546.4,105.4h-8.5v9.7h8.4c4.3,0,7.4-0.8,7.4-4.8C553.8,106.3,550.6,105.4,546.4,105.4z"/>
		<path class="st0" d="M616.5,118.5c0,13.2-6.7,23.5-23.2,23.5s-23.2-10.3-23.2-23.5S576.8,95,593.3,95S616.5,105.3,616.5,118.5z
			 M603.6,118.5c0-7.6-2.8-12.9-10.3-12.9S583,111,583,118.5c0,7.6,2.8,12.9,10.3,12.9S603.6,126.2,603.6,118.5z"/>
		<path class="st0" d="M635,114.7v26.6h-12.5V95.7h12.7l16.1,26.7V95.7h12.5v45.7h-12.7L635,114.7z"/>
		<path class="st0" d="M694.1,106.3v35.1h-12.5v-35.1h-13V95.7h38.3v10.6H694.1z"/>
		<path class="st0" d="M755,118.5c0,13.2-6.7,23.5-23.2,23.5c-16.5,0-23.2-10.3-23.2-23.5S715.3,95,731.8,95
			C748.3,95,755,105.3,755,118.5z M742.1,118.5c0-7.6-2.8-12.9-10.3-12.9c-7.5,0-10.3,5.3-10.3,12.9c0,7.6,2.8,12.9,10.3,12.9
			C739.3,131.4,742.1,126.2,742.1,118.5z"/>
		<path class="st0" d="M808,114.7v26.6h-12.5V95.7h12.7l16.1,26.7V95.7h12.5v45.7h-12.7L808,114.7z"/>
		<path class="st0" d="M844.7,141.4V95.7h34.2v10.6h-21.7v7.1h17.6v10.3h-17.6v7.1h22v10.6H844.7z"/>
		<path class="st0" d="M906.1,126.2h-8v15.1h-12.5V95.7h20.5c13.1,0,19.1,5.5,19.1,15.3C925.2,120.8,919.2,126.2,906.1,126.2z
			 M905.2,106h-7.1v10h7.1c4.1,0,7.3-0.9,7.3-5C912.5,106.9,909.3,106,905.2,106z"/>
		<path class="st0" d="M954.2,133.7h-15.7l-2.3,7.6h-13.6l16.8-45.7h13.8l16.8,45.7h-13.6L954.2,133.7z M941.4,124h9.8l-5-16.6
			L941.4,124z"/>
		<path class="st0" d="M974,141.4V95.7h12.5v35.1h20.9v10.6H974z"/>
		<path class="st0" d="M1012.3,141.4V95.7h12.5v45.7H1012.3z"/>
		<path class="st0" d="M448.6,168.2v7.1h17.1v10.4h-17.1v17.6h-12.5v-45.7h34.2v10.6H448.6z"/>
		<path class="st0" d="M475.2,203.3v-45.7h12.5v45.7H475.2z"/>
		<path class="st0" d="M495.7,203.3v-45.7h12.5v35.1h20.9v10.6H495.7z"/>
		<path class="st0" d="M569.9,177.7l-8.5,18h-6.5l-8.5-17.9v25.6h-12.5v-45.7h12.7l11.5,24.5l11.5-24.5h12.8v45.7h-12.5V177.7z"/>
		<path class="st0" d="M637.4,168.2v7.1h17.1v10.4h-17.1v17.6h-12.5v-45.7H659v10.6H637.4z"/>
		<path class="st0" d="M663.9,203.3v-45.7h34.2v10.6h-21.7v7.1h17.6v10.3h-17.6v7.1h22v10.6H663.9z"/>
		<path class="st0" d="M742,189.9c0,8-6.2,14.2-17.7,14.2c-8.7,0-17.5-3.5-22.3-6.5l5.5-8.9c4,2.3,11.7,5.1,16.2,5.1
			c2.8,0,5.1-0.9,5.1-2.9c0-3.5-6.7-3.4-14.7-6.6c-4.9-1.8-11.1-5.3-11.1-13.3c0-7.8,5.9-14,17.5-14c7.2,0,15.1,2.3,20.3,5l-5.5,9
			c-3.6-1.6-10-3.7-13.9-3.7c-2.7,0-5.1,0.8-5.1,2.9c0,3.5,6.7,3.3,14.5,6.4C735.3,178.3,742,181.6,742,189.9z"/>
		<path class="st0" d="M769.6,168.2v35.1h-12.5v-35.1h-13v-10.6h38.3v10.6H769.6z"/>
		<path class="st0" d="M787.2,203.3v-45.7h12.5v45.7H787.2z"/>
		<path class="st0" d="M827.2,188.6l9.2-31h14.5l-16.8,45.7h-13.9l-16.8-45.7H818L827.2,188.6z"/>
		<path class="st0" d="M878.4,195.7h-15.7l-2.3,7.6h-13.6l16.8-45.7h13.8l16.8,45.7h-13.6L878.4,195.7z M865.6,186h9.8l-5-16.6
			L865.6,186z"/>
		<path class="st0" d="M898.2,203.3v-45.7h12.5v35.1h20.9v10.6H898.2z"/>
	</g>
	<path class="st1" d="M246,76.9c0,0,14.8-42.6,29.2-57C293.9,1.2,311.5,0,320.2,0c16.1,0,23.6,6.4,26.8,18.4
		c5,32-48.2,42.5-51.8,30.3c-3.7-12.2-5.1,28.2-5.1,28.2h36.5c0,0,14.8-42.6,29.2-57C374.5,1.2,392.2,0,400.8,0
		c16.1,0,23.6,6.4,26.8,18.4c5,32-48,42.8-51.8,30.3c-3.6-12.3-5.4,18.9-4.5,22.3c0.9,3.4,7.2,5.6,14.2,6.7c2.1,0.3,3.4,0.7,3.9,1.3
		c0.4,0.6,0.7,1.9,0.7,3.8v10.5c0,1.8-0.2,2.8-0.7,3.2c-0.4,0.4-1.5,0.6-3.1,0.6h-5.7l-9.3-0.1c0,0,0,100.6,0,130.6
		c0,30-48.5,47.3-48.5,47.3v-29.7V96.5h-32.2c0,0,0,101.2,0,131.2c0,30-48.5,47.3-48.5,47.3v-29.7V96.5h-32
		c1.4,4.2,2.2,7.9,2.2,13.1v159.5c-4.3,32.3-49.9,39.2-66,38c20-16,17.4-49.5,17.4-49.5V118.2c0-7.6-3.1-11.4-9.4-11.4
		c-4.1,0-8.5,2.2-13.3,6.4c0,0,0,81.1,0,116.5c0,35.4-48.6,46.9-48.6,46.9V97H63.2v127.8c0,0-1.9,34.6,19.3,52.1
		c-71.8,0-68-52.1-68-52.1V97H3.8c-1.7,0-2.7-0.2-3.2-0.6C0.2,96,0,94.9,0,93.2V82.6c0-2,0.2-3.2,0.7-3.8c0.4-0.6,1.7-1,3.9-1.3
		c7-1.1,19.1-5,26.2-11.7c7.1-6.7,11.4-14,12.7-21.7c0.5-2.7,1.1-4.4,1.8-5.1c0.7-0.6,2.2-1,4.5-1h9.5c2.5,0,3.8,1.7,3.8,5.1v33.7
		h73.2c2.1,0,3.3,0.3,3.8,0.9c0.5,0.6,0.7,1.8,0.7,3.7v15.4c11.6-14.7,24.9-22,39.8-22c5.4,0,9.2,0.2,13.3,2.1H246z"/>
</g>
</svg>
