<?xml version="1.0" encoding="utf-8"?>
<!-- Generator: Adobe Illustrator 19.0.0, SVG Export Plug-In . SVG Version: 6.00 Build 0)  -->
<svg version="1.1" id="Layer_1" xmlns="http://www.w3.org/2000/svg" xmlns:xlink="http://www.w3.org/1999/xlink" x="0px" y="0px"
	 viewBox="431.3 710.6 428 307.2" style="enable-background:new 431.3 710.6 428 307.2;" xml:space="preserve">
<style type="text/css">
	.st0{fill:#B82F2F;}
</style>
<path class="st0" d="M677.4,787.5c0,0,14.8-42.6,29.2-57c18.7-18.7,36.3-19.9,45-19.9c16.1,0,23.6,6.4,26.8,18.4
	c5,32-48.2,42.5-51.8,30.3c-3.7-12.2-5.1,28.2-5.1,28.2H758c0,0,14.8-42.6,29.2-57c18.7-18.7,36.3-19.9,45-19.9
	c16.1,0,23.6,6.4,26.8,18.4c5,32-48,42.8-51.8,30.3c-3.6-12.3-5.4,18.9-4.5,22.3c0.9,3.4,7.2,5.6,14.2,6.7c2.1,0.3,3.4,0.7,3.9,1.3
	c0.4,0.6,0.7,1.9,0.7,3.8V804c0,1.8-0.2,2.8-0.7,3.2c-0.4,0.4-1.5,0.6-3.1,0.6H812l-9.3-0.1c0,0,0,100.6,0,130.6
	c0,30-48.5,47.3-48.5,47.3v-29.7V807.2H722c0,0,0,101.2,0,131.2s-48.5,47.3-48.5,47.3V956V807.1h-32c1.4,4.2,2.2,7.9,2.2,13.1v159.5
	c-4.3,32.3-49.9,39.2-66,38c20-16,17.4-49.5,17.4-49.5V828.8c0-7.6-3.1-11.4-9.4-11.4c-4.1,0-8.5,2.2-13.3,6.4c0,0,0,81.1,0,116.5
	s-48.6,46.9-48.6,46.9V807.6h-29.1v127.8c0,0-1.9,34.6,19.3,52.1c-71.8,0-68-52.1-68-52.1V807.6h-10.8c-1.7,0-2.7-0.2-3.2-0.6
	c-0.4-0.4-0.7-1.5-0.7-3.2v-10.5c0-2,0.2-3.2,0.7-3.8c0.4-0.6,1.7-1,3.9-1.3c7-1.1,19.1-5,26.2-11.7s11.4-14,12.7-21.7
	c0.5-2.7,1.1-4.4,1.8-5.1c0.7-0.6,2.2-1,4.5-1h9.5c2.5,0,3.8,1.7,3.8,5.1v33.7h73.2c2.1,0,3.3,0.3,3.8,0.9c0.5,0.6,0.7,1.8,0.7,3.7
	v15.4c11.6-14.7,24.9-22,39.8-22c5.4,0,9.2,0.2,13.3,2.1h52.2V787.5z"/>
</svg>
